<svg id="Layer_1" data-name="Layer 1" xmlns="http://www.w3.org/2000/svg" viewBox="0 0 96 24"><defs><style>.cls-1{fill:#0081a7;}</style></defs><path class="cls-1" d="M32.57,18.93c-.15,0-.22-.08-.22-.24l.27-15.24q0-.24.21-.24h2.33a.25.25,0,0,1,.24.17l3,9.14,3-9.14a.29.29,0,0,1,.26-.17H44q.21,0,.21.24l.27,15.24c0,.16-.07.24-.22.24H42.67q-.21,0-.21-.24L42.31,9.4c0-.56,0-1.12,0-1.7s0-1.14,0-1.7h0c-.14.52-.3,1.06-.48,1.59s-.36,1.06-.55,1.57L38.66,16.7c0,.11-.09.17-.24.17h-.09a.2.2,0,0,1-.22-.17L35.47,9.12c-.19-.53-.37-1.06-.53-1.58s-.31-1-.45-1.54h-.05c0,.54.05,1.1.05,1.68V9.36l-.15,9.33q0,.24-.21.24Z"/><path class="cls-1" d="M48.77,19.12A2,2,0,0,1,47,18.3a3.94,3.94,0,0,1-.61-2.37,3.78,3.78,0,0,1,.87-2.65,4.56,4.56,0,0,1,2.94-1.16L51.91,12v1.46l-1.51.17a2.45,2.45,0,0,0-1.55.62,2.26,2.26,0,0,0-.47,1.56,2.27,2.27,0,0,0,.26,1.2.81.81,0,0,0,.75.41A2,2,0,0,0,50.52,17,8.53,8.53,0,0,0,52,15.52l.08,1.59a8.23,8.23,0,0,1-1.66,1.53A3,3,0,0,1,48.77,19.12Zm3.38-.19c-.09,0-.17-.09-.21-.26s0-.55-.09-1-.07-.8-.08-1.12l-.12-.46V10.58a2.43,2.43,0,0,0-.3-1.42,1.45,1.45,0,0,0-1.17-.38,1.27,1.27,0,0,0-1.44,1.49q0,.24-.21.24H47.09q-.24,0-.27-.36a2.65,2.65,0,0,1,.76-2.32A3.79,3.79,0,0,1,50.23,7a3.54,3.54,0,0,1,2.61.83,3.85,3.85,0,0,1,.8,2.73V16c0,.62,0,1.15,0,1.58s0,.79.06,1.06,0,.26-.2.26Z"/><path class="cls-1" d="M56.33,23.37c-.15,0-.22-.08-.22-.24V10c0-.51,0-1,0-1.39s0-.79-.07-1.11,0-.26.19-.26H57.6c.13,0,.2.07.22.22s.06.42.09.75S58,8.8,58,9l.12.87V23.13q0,.24-.21.24Zm4.29-4.25a5.42,5.42,0,0,1-1.47-.2,5.27,5.27,0,0,1-1.31-.54l0-1.7a4.81,4.81,0,0,0,1.08.46,4,4,0,0,0,1.15.18,1.44,1.44,0,0,0,1.28-.61,3.47,3.47,0,0,0,.42-1.93V10.7a2.62,2.62,0,0,0-.3-1.43,1.09,1.09,0,0,0-1-.44,2.32,2.32,0,0,0-1.28.44,8.4,8.4,0,0,0-1.46,1.33L57.62,9a7.54,7.54,0,0,1,1.7-1.46A3.37,3.37,0,0,1,61.13,7a2.33,2.33,0,0,1,2,.86,4.32,4.32,0,0,1,.64,2.62V14.9a5.18,5.18,0,0,1-.8,3.17A2.75,2.75,0,0,1,60.62,19.12Z"/><path class="cls-1" d="M66.48,18.93c-.14,0-.22-.08-.22-.24V3.45c0-.16.08-.24.22-.24h1.58c.15,0,.22.08.22.24V9.91h5.35V3.45c0-.16.07-.24.22-.24h1.58c.15,0,.22.08.22.24V18.69c0,.16-.07.24-.22.24H73.85c-.15,0-.22-.08-.22-.24V11.76H68.28v6.93c0,.16-.07.24-.22.24Z"/><path class="cls-1" d="M80.81,19.12a2.18,2.18,0,0,1-1.9-.82,4.37,4.37,0,0,1-.6-2.54V7.44a.19.19,0,0,1,.22-.22h1.56c.14,0,.21.07.21.22v8.18a2.24,2.24,0,0,0,.29,1.31,1,1,0,0,0,.87.37,2.27,2.27,0,0,0,1.35-.48,7.89,7.89,0,0,0,1.43-1.42L84.36,17a7.42,7.42,0,0,1-1.69,1.56A3.43,3.43,0,0,1,80.81,19.12Zm3.62-.19a.22.22,0,0,1-.24-.21c0-.32-.09-.69-.12-1.1s0-.74,0-1l-.14-.52V7.44a.19.19,0,0,1,.22-.22h1.56c.14,0,.21.07.21.22V16q0,.87,0,1.53c0,.44,0,.82.07,1.14,0,.17,0,.26-.19.26Z"/><path class="cls-1" d="M92.21,19.12a9.19,9.19,0,0,1-1.89-.18,15.33,15.33,0,0,0-2-.27V2.78c0-.16.08-.24.22-.24h1.56c.14,0,.22.08.22.24V17.13a6.31,6.31,0,0,0,.82.15c.3,0,.58,0,.83,0a1.83,1.83,0,0,0,1.54-.61,3.33,3.33,0,0,0,.48-2v-4a2.58,2.58,0,0,0-.31-1.41,1.14,1.14,0,0,0-1-.44,2.28,2.28,0,0,0-1.27.43A8.22,8.22,0,0,0,90,10.58l0-1.7a6.63,6.63,0,0,1,1.71-1.42A3.61,3.61,0,0,1,93.38,7a2.32,2.32,0,0,1,2,.86A4.31,4.31,0,0,1,96,10.48V14.8a4.88,4.88,0,0,1-.92,3.29A3.67,3.67,0,0,1,92.21,19.12Z"/><path class="cls-1" d="M12,18l1.2-2.4V9.43a4.8,4.8,0,1,0-2.4,0V15.6Z"/><path class="cls-1" d="M17.12,10.28l-.64,2.31c3.11.86,5.12,2.51,5.12,4.21,0,2.27-3.94,4.8-9.6,4.8s-9.6-2.53-9.6-4.8c0-1.7,2-3.35,5.12-4.21l-.64-2.32C2.64,11.45,0,14,0,16.8c0,4,5.27,7.2,12,7.2s12-3.16,12-7.2C24,14,21.36,11.45,17.12,10.28Z"/></svg>